<svg xmlns="http://www.w3.org/2000/svg" viewBox="0 0 920 200" role="img" aria-label="JK External API — 한국 외부 정보원 색인">
  <rect x="0.5" y="0.5" width="919" height="199" fill="#fbfbfc" stroke="#141b27" stroke-width="1"/>

  <g stroke="#d8e0eb" stroke-width="1">
    <line x1="600" y1="24" x2="900" y2="24"/>
    <line x1="600" y1="52" x2="900" y2="52"/>
    <line x1="600" y1="80" x2="900" y2="80"/>
    <line x1="600" y1="108" x2="900" y2="108"/>
    <line x1="600" y1="136" x2="900" y2="136"/>
    <line x1="600" y1="164" x2="900" y2="164"/>
  </g>

  <g fill="none" stroke-width="2.5" stroke-linecap="round">
    <polyline points="620,150 660,90 700,130 760,60" stroke="#2357a5"/>
    <polyline points="640,172 690,120 740,150 820,80" stroke="#687c46"/>
    <polyline points="760,172 800,110 860,140" stroke="#ba3a36"/>
  </g>
  <circle cx="660" cy="90" r="5" fill="#fbfbfc" stroke="#2357a5" stroke-width="2.5"/>
  <circle cx="700" cy="130" r="5" fill="#fbfbfc" stroke="#2357a5" stroke-width="2.5"/>
  <circle cx="690" cy="120" r="5" fill="#fbfbfc" stroke="#687c46" stroke-width="2.5"/>
  <circle cx="800" cy="110" r="6" fill="#ba3a36" stroke="#fbfbfc" stroke-width="2"/>

  <text x="56" y="34" font-family="Consolas, 'IBM Plex Mono', monospace" font-size="11" letter-spacing="1.5" fill="#2357a5">PUBLIC DATA REGISTRY · JK-EA 2026</text>

  <rect x="56" y="48" width="56" height="56" fill="#2357a5"/>
  <text x="84" y="83" font-family="Consolas, 'IBM Plex Mono', monospace" font-size="20" letter-spacing="1.5" fill="#fbfbfc" text-anchor="middle">KS</text>

  <text x="128" y="76" font-family="Georgia, 'Noto Serif KR', serif" font-size="34" font-weight="700" letter-spacing="-1" fill="#141b27">JK External API</text>
  <text x="128" y="98" font-family="'Segoe UI', 'Malgun Gothic', sans-serif" font-size="13" fill="#5c6572">한국 외부 정보원 색인</text>

  <text x="56" y="132" font-family="'Segoe UI', 'Malgun Gothic', sans-serif" font-size="16" fill="#141b27">정보원 · 기술 · k-skill · 청사진을 잇는 읽기 전용 색인</text>

  <g font-family="Consolas, 'IBM Plex Mono', monospace" font-size="12.5">
    <rect x="56" y="152" width="104" height="30" fill="#eef2f7" stroke="#d8e0eb"/>
    <text x="108" y="171" text-anchor="middle" fill="#2357a5">정적 사이트</text>

    <rect x="168" y="152" width="150" height="30" fill="#eef2f7" stroke="#d8e0eb"/>
    <text x="243" y="171" text-anchor="middle" fill="#2357a5">Cloudflare Worker</text>

    <rect x="326" y="152" width="96" height="30" fill="#eef2f7" stroke="#d8e0eb"/>
    <text x="374" y="171" text-anchor="middle" fill="#687c46">읽기 전용</text>
  </g>
</svg>
